<svg xmlns="http://www.w3.org/2000/svg" version="1.1" xmlns:xlink="http://www.w3.org/1999/xlink" viewBox="0 0 200 200"><rect width="200" height="200" fill="url('#gradient')"></rect><defs><linearGradient id="gradient" gradientTransform="rotate(224 0.5 0.5)"><stop offset="0%" stop-color="#af6d3d"></stop><stop offset="100%" stop-color="#2c2472"></stop></linearGradient></defs><g><g fill="#9aeabe" transform="matrix(1.6718367346938776,0,0,1.6718367346938776,8.953762389105194,111.88277469245755)" stroke="#aade39" stroke-width="0.2"><path d="M8.41-3.78L8.41-3.78Q8.41-4.53 7.88-4.95Q7.34-5.37 6.01-5.82Q4.67-6.27 3.82-6.69L3.82-6.69Q1.05-8.05 1.05-10.42L1.05-10.42Q1.05-11.60 1.74-12.50Q2.43-13.41 3.69-13.91Q4.95-14.41 6.52-14.41L6.52-14.41Q8.06-14.41 9.27-13.87Q10.49-13.32 11.16-12.31Q11.84-11.30 11.84-10L11.84-10L8.42-10Q8.42-10.87 7.89-11.35Q7.35-11.83 6.45-11.83L6.45-11.83Q5.53-11.83 5.00-11.42Q4.46-11.02 4.46-10.39L4.46-10.39Q4.46-9.84 5.05-9.40Q5.63-8.96 7.11-8.48Q8.58-8.01 9.53-7.46L9.53-7.46Q11.84-6.13 11.84-3.80L11.84-3.80Q11.84-1.93 10.43-0.87Q9.02 0.20 6.57 0.20L6.57 0.20Q4.84 0.20 3.44-0.42Q2.04-1.04 1.33-2.12Q0.63-3.20 0.63-4.61L0.63-4.61L4.06-4.61Q4.06-3.47 4.65-2.92Q5.24-2.38 6.57-2.38L6.57-2.38Q7.42-2.38 7.92-2.75Q8.41-3.12 8.41-3.78ZM13.47-10.57L16.55-10.57L16.66-9.33Q17.78-10.76 19.68-10.76L19.68-10.76Q21.68-10.76 22.38-9.17L22.38-9.17Q23.46-10.76 25.49-10.76L25.49-10.76Q28.70-10.76 28.79-6.88L28.79-6.88L28.79 0L25.49 0L25.49-6.67Q25.49-7.48 25.21-7.85Q24.94-8.22 24.22-8.22L24.22-8.22Q23.24-8.22 22.76-7.35L22.76-7.35L22.77-7.22L22.77 0L19.47 0L19.47-6.65Q19.47-7.48 19.21-7.85Q18.95-8.22 18.20-8.22L18.20-8.22Q17.26-8.22 16.76-7.35L16.76-7.35L16.76 0L13.47 0L13.47-10.57ZM39.91 0L36.62 0Q36.45-0.32 36.31-0.95L36.31-0.95Q35.40 0.20 33.77 0.20L33.77 0.20Q32.28 0.20 31.23-0.71Q30.19-1.61 30.19-2.98L30.19-2.98Q30.19-4.70 31.46-5.58Q32.72-6.46 35.15-6.46L35.15-6.46L36.16-6.46L36.16-7.01Q36.16-8.47 34.90-8.47L34.90-8.47Q33.73-8.47 33.73-7.31L33.73-7.31L30.44-7.31Q30.44-8.85 31.74-9.80Q33.05-10.76 35.07-10.76Q37.09-10.76 38.26-9.78Q39.43-8.79 39.46-7.07L39.46-7.07L39.46-2.39Q39.48-0.94 39.91-0.17L39.91-0.17L39.91 0ZM34.56-2.15L34.56-2.15Q35.18-2.15 35.58-2.41Q35.99-2.68 36.16-3.01L36.16-3.01L36.16-4.70L35.21-4.70Q33.49-4.70 33.49-3.15L33.49-3.15Q33.49-2.71 33.79-2.43Q34.09-2.15 34.56-2.15ZM47.73-10.64L47.68-7.59L46.59-7.67Q45.04-7.67 44.60-6.69L44.60-6.69L44.60 0L41.31 0L41.31-10.57L44.39-10.57L44.50-9.21Q45.33-10.76 46.82-10.76L46.82-10.76Q47.34-10.76 47.73-10.64L47.73-10.64ZM49.89-13.19L53.18-13.19L53.18-10.57L54.92-10.57L54.92-8.28L53.18-8.28L53.18-3.45Q53.18-2.85 53.40-2.62Q53.61-2.38 54.25-2.38L54.25-2.38Q54.74-2.38 55.07-2.44L55.07-2.44L55.07-0.09Q54.18 0.20 53.21 0.20L53.21 0.20Q51.51 0.20 50.70-0.61Q49.89-1.41 49.89-3.04L49.89-3.04L49.89-8.28L48.54-8.28L48.54-10.57L49.89-10.57L49.89-13.19ZM68.25-14.22L68.25 0L64.84 0L64.84-5.94L59.79-5.94L59.79 0L56.37 0L56.37-14.22L59.79-14.22L59.79-8.57L64.84-8.57L64.84-14.22L68.25-14.22ZM69.86-4.82L69.85-5.38Q69.85-6.96 70.47-8.20Q71.08-9.43 72.24-10.10Q73.39-10.76 74.94-10.76L74.94-10.76Q77.31-10.76 78.68-9.29Q80.05-7.82 80.05-5.29L80.05-5.29L80.05-5.18Q80.05-2.71 78.68-1.25Q77.30 0.20 74.96 0.20L74.96 0.20Q72.71 0.20 71.34-1.16Q69.97-2.51 69.86-4.82L69.86-4.82ZM73.15-5.77L73.14-5.18Q73.14-3.71 73.60-3.03Q74.06-2.34 74.96-2.34L74.96-2.34Q76.72-2.34 76.76-5.05L76.76-5.05L76.76-5.38Q76.76-8.22 74.94-8.22L74.94-8.22Q73.29-8.22 73.15-5.77L73.15-5.77ZM81.52-10.57L84.61-10.57L84.72-9.33Q85.84-10.76 87.73-10.76L87.73-10.76Q89.74-10.76 90.44-9.17L90.44-9.17Q91.51-10.76 93.54-10.76L93.54-10.76Q96.76-10.76 96.85-6.88L96.85-6.88L96.85 0L93.54 0L93.54-6.67Q93.54-7.48 93.27-7.85Q93.00-8.22 92.28-8.22L92.28-8.22Q91.30-8.22 90.82-7.35L90.82-7.35L90.83-7.22L90.83 0L87.53 0L87.53-6.65Q87.53-7.48 87.27-7.85Q87.00-8.22 86.26-8.22L86.26-8.22Q85.31-8.22 84.81-7.35L84.81-7.35L84.81 0L81.52 0L81.52-10.57ZM103.84 0.20L103.84 0.20Q101.41 0.20 99.90-1.25Q98.40-2.71 98.40-5.03L98.40-5.03L98.40-5.30Q98.40-6.92 99.00-8.16Q99.60-9.40 100.75-10.08Q101.90-10.76 103.49-10.76L103.49-10.76Q105.71-10.76 107.00-9.38Q108.29-8.00 108.29-5.53L108.29-5.53L108.29-4.25L101.75-4.25Q101.92-3.36 102.52-2.85Q103.12-2.34 104.06-2.34L104.06-2.34Q105.63-2.34 106.50-3.44L106.50-3.44L108.01-1.66Q107.39-0.81 106.26-0.31Q105.14 0.20 103.84 0.20ZM103.47-8.22L103.47-8.22Q102.02-8.22 101.75-6.31L101.75-6.31L105.07-6.31L105.07-6.56Q105.09-7.35 104.67-7.79Q104.25-8.22 103.47-8.22Z"></path></g></g></svg>